<?xml version="1.0" encoding="utf-8"?>
<!-- Generator: Adobe Illustrator 25.0.0, SVG Export Plug-In . SVG Version: 6.00 Build 0)  -->
<svg version="1.1" id="Layer_1" xmlns="http://www.w3.org/2000/svg" xmlns:xlink="http://www.w3.org/1999/xlink" x="0px" y="0px"
	 viewBox="0 0 310 233" style="enable-background:new 0 0 310 233;" xml:space="preserve">
<style type="text/css">
	.st0{fill:#FFFFFF;}
	.st1{fill-rule:evenodd;clip-rule:evenodd;}
</style>
<g>
	<path d="M138.6,171.8l-0.1,19c0,0.3-0.1,0.7-0.4,0.9c-0.5,0.4-1.2,0.3-1.7-0.2l-7-9l-0.3,0.9c-5.1,14.8-6.7,19.5-4.7,36.4
		c0,0.4-0.1,0.8-0.4,1.1c-0.5,0.4-1.2,0.3-1.7-0.2c-2.2-2.7-3.9-4.9-5.5-7.2c-1.3-1.9-2.5-3.8-3.8-6c-2.5,3.8-4.2,6.6-5.7,9.5
		c-1.7,3.3-3.2,6.8-5.2,11.9c-0.1,0.3-0.4,0.6-0.8,0.7c-0.6,0.2-1.3-0.2-1.4-0.8l-7.3-25.2c-2.7,3.5-5.2,6.7-7.5,10
		c-2.8,3.8-5.5,7.8-8.3,12.2c-0.2,0.3-0.5,0.5-1,0.5c-0.7,0-1.2-0.5-1.2-1.1c-0.1-2.6-0.3-5-0.4-7.1c-0.6-8.2-0.9-12,2.9-21.6
		l-0.8,0c-7.8,0.5-9.9,0.6-18.3,4c-0.5,0.2-1.1,0.1-1.4-0.3c-0.4-0.5-0.4-1.2,0.1-1.7c1.7-1.5,3.1-2.7,4.3-3.9
		c7.2-6.6,12.8-11.6,21.8-16.8c-0.6-0.3-1.2-0.5-1.8-0.8c-5.3-2.3-8-3.6-15.2-3.9c-0.4,0-0.8-0.2-1.1-0.6c-0.3-0.6-0.1-1.3,0.5-1.6
		c2.6-1.3,4.8-2.6,6.9-3.7c7.3-4.1,12.5-7,22-8.2l-10.9-8.7c-0.3-0.2-0.5-0.5-0.5-0.9c0-0.7,0.4-1.2,1.1-1.2
		c1.9-0.1,3.9-0.2,6.1-0.2c6.5-0.1,14.1-0.3,18.9-2.7c-0.5-0.9-1-1.9-1.4-2.8c-1.2-2.3,1-6.5,2.5-9.4c0.2-0.5,0.5-1,0.7-1.3
		c-0.8-1.3-1.6-2.7-2.3-4.1c-0.4-0.8-0.7-1.3-0.9-1.8c-9.4-0.7-17.9-0.4-26.4,0.7c-8.7,1.1-17.4,3.1-26.7,5.9c-2.4,0.7-4,1-4.7,0.2
		c-0.8-0.9-0.1-2.3,2.1-4.6c8.9-9.4,18.4-18.5,27.8-27.6c4.9-4.7,9.8-9.5,14.4-14.1c0.4-0.4,0.8-0.8,1.1-1.1c2-2,2.4-2.5,5.9-3.6
		c4.2-1.4,9-2.5,14-3.3c4.7-0.8,9.5-1.3,14.1-1.7c9.1-13.9,20.3-26.1,33.3-36.5c11-8.8,23.4-16.3,36.9-22.1h0h0
		c17.3-7.5,36.4-12.4,57.3-14.4c0.6,0,1.1-0.1,1.4-0.1h0c1.3-0.1,2-0.2,2.6,0.3c0.7,0.6,0.7,1.3,0.7,2.8c0,0.3,0,0.8,0,1.1
		c0.1,20.6-2.4,40.2-7.7,58.4c0,0,0,0,0,0.1v0c-4.1,14-9.8,27.1-17.3,39.4c-8.4,13.8-19.1,26.3-32.2,37.4c0.2,4.6,0.2,9.5,0,14.3
		c-0.2,5-0.7,9.9-1.5,14.2c-0.8,3.6-1.2,4.2-2.9,6.3c-0.3,0.4-0.7,0.9-0.9,1.2c-3.8,4.9-8,10.5-12.1,16c-7.9,10.4-15.7,20.9-23.9,31
		c-2,2.5-3.3,3.4-4.3,2.7c-0.1-0.1-0.2-0.2-0.3-0.3c-0.5-0.8-0.4-2.2,0-4.4c1.6-9.5,2.5-18.2,2.5-27c0-8.4-0.7-16.9-2.5-26
		c-0.6-0.1-1.1-0.3-1.9-0.8c-0.2-0.1-0.6-0.3-1-0.5c-1.4-0.7-2.8-1.4-4.2-2.2c-0.3,0.2-0.8,0.6-1.2,0.9c-2.8,2.2-6.9,5.2-9.4,4.2
		C139.7,172.2,139.1,172,138.6,171.8z"/>
	<path class="st0" d="M123.2,90.4c9.1,12.9,19.4,24.3,30.6,34.1c11.3,9.9,23.6,18.3,37.1,25.3c18.2-13,32.5-28.4,43.2-45.7
		c7.2-11.7,12.8-24.4,16.7-37.7c-10.1-3.3-20.8-10-30.1-18.2c-9.4-8.3-17.5-18.2-21.9-27.6c-12.9,5.7-24.8,12.9-35.4,21.3
		C146.8,55.1,133.2,71.5,123.2,90.4z"/>
	<path d="M217.2,52.1c4.6,4.1,7.1,9.6,7.5,15.3c0.3,5.7-1.4,11.5-5.5,16.2c-4.1,4.6-9.6,7.1-15.3,7.5c-5.7,0.3-11.5-1.5-16.2-5.5
		c-4.6-4.1-7.1-9.6-7.5-15.3c-0.3-5.7,1.4-11.5,5.5-16.2c4.1-4.6,9.6-7.1,15.3-7.5C206.7,46.2,212.5,48,217.2,52.1z"/>
	<path d="M185.8,87.8c4.6,4.1,7.1,9.6,7.4,15.2c0.3,5.7-1.4,11.5-5.5,16.2c-4.1,4.6-9.6,7.1-15.3,7.5c-5.7,0.3-11.5-1.4-16.2-5.5
		c-4.6-4.1-7.1-9.6-7.5-15.3c-0.3-5.7,1.4-11.5,5.5-16.1c0,0,0.1-0.1,0.1-0.1c4.1-4.6,9.6-7.1,15.2-7.4c5.7-0.3,11.5,1.4,16.1,5.5
		C185.7,87.7,185.7,87.7,185.8,87.8z"/>
	<path class="st0" d="M222.3,67.5c-0.3-5.1-2.6-10.1-6.7-13.7c-4.1-3.6-9.4-5.3-14.4-4.9c-5.1,0.3-10.1,2.6-13.7,6.7
		c-3.6,4.1-5.3,9.4-4.9,14.4c0.3,5.1,2.6,10.1,6.7,13.7c4.1,3.6,9.4,5.3,14.4,4.9c5.1-0.3,10.1-2.6,13.7-6.7
		C221,77.9,222.6,72.6,222.3,67.5z"/>
	<path class="st0" d="M190.8,103.2c-0.3-5.1-2.6-10.1-6.7-13.7c-4.1-3.6-9.4-5.3-14.4-4.9c-5.1,0.3-10.1,2.6-13.7,6.7
		c-3.6,4.1-5.3,9.4-4.9,14.4c0.3,5.1,2.6,10.1,6.7,13.7c4.1,3.6,9.4,5.3,14.4,4.9c5.1-0.3,10.1-2.6,13.7-6.7
		C189.5,113.5,191.1,108.3,190.8,103.2z"/>
	<path class="st0" d="M127.1,79.1c-3.9,0.4-8.1,0.9-12.1,1.5c-4.8,0.8-9.4,1.8-13.6,3.2c-3,1-3.4,1.4-5,3.1
		c-0.3,0.3-0.7,0.7-1.1,1.1c-4.8,4.8-9.6,9.4-14.4,14.1c-9.4,9.1-18.8,18.3-27.7,27.5l-0.9,0.9l1.1-0.4c9.4-2.8,18.2-4.8,27-6
		c8.6-1.1,17.3-1.4,26.9-0.7l0.1-0.2c0.1-0.3,0.2-0.6,0.3-1c3.3-11.3,7.7-22.1,13-32.1c0,0,0,0,0,0
		C122.7,86.2,124.8,82.6,127.1,79.1z"/>
	<path class="st0" d="M160.2,170.3c1.8,9.4,2.6,18,2.5,26.6c0,8.9-1,17.7-2.6,27.4c-0.2,1.5-0.8,2.2-0.7,2.4c0.3,0.2,0-0.9,1.2-2.2
		c8.1-9.9,16-20.4,23.8-30.9c3.9-5.2,7.9-10.5,12.2-16.1c0.5-0.6,0.7-0.9,0.9-1.2c1.4-1.8,1.8-2.3,2.4-5.3c0.9-4.2,1.3-9,1.5-13.9
		c0.1-4.1,0.1-8.3,0-12.4c-3.2,2.6-6.4,5.1-9.8,7.5c0,0,0,0-0.1,0.1c-9.1,6.4-19.1,12.2-30.1,17.5c-0.5,0.2-0.7,0.3-0.8,0.4
		C160.5,170.1,160.3,170.2,160.2,170.3z"/>
	<path class="st0" d="M112.7,130.8L112.7,130.8c4.1,6.4,9.4,12.6,15.7,18.1c6.8,6.1,14.6,11.6,22.9,16.1c0,0,0,0,0.1,0
		c1.5,0.9,3.1,1.7,4.7,2.4c0.3,0.2,0.7,0.3,1,0.5c0.7,0.4,1.1,0.5,1.2,0.5c0.2,0,0.6-0.2,1.3-0.6l0.8-0.4
		c10.3-4.8,19.7-10.3,28.2-16.2c-13.1-7-25.3-15.3-36.4-25c-11.2-9.7-21.3-20.9-30.4-33.6c-4.8,9.4-8.9,19.5-11.9,30
		c-0.1,0.4-0.2,0.8-0.3,1.1c-0.3,1-0.3,1,0.5,2.5C110.9,127.8,111.8,129.3,112.7,130.8z"/>
	<path class="st0" d="M116.8,156.6l-7.6,3.3l2.8,1.2c0.6,0.2,0.9,1,0.6,1.5c-0.1,0.3-0.4,0.5-0.7,0.6l-14.4,5.1l5.2,2.4
		c0.6,0.3,0.9,1,0.6,1.6c0,0.1-0.1,0.2-0.2,0.3l-7.3,8.1l7.4-1.2c0.6-0.1,1.2,0.3,1.3,1c0,0.1,0,0.2,0,0.3l-0.3,6.4l3.5-6.9
		c0.3-0.6,1-0.8,1.6-0.5c0.2,0.1,0.4,0.3,0.5,0.5l1.2,1.8L117,169c0.3-0.6,1-0.9,1.6-0.6c0.4,0.2,0.7,0.6,0.7,1.1v3.1l2-5.2
		c0.2-0.6,0.9-0.9,1.5-0.7c0.2,0.1,0.4,0.2,0.5,0.4l1.3,1.6l1-4c-1.8-1.3-3.5-2.7-5.1-4.2C119.2,159.1,118,157.9,116.8,156.6z"/>
	<path class="st0" d="M137.8,168.9C137.8,168.9,137.9,168.9,137.8,168.9c1.1,0.5,2.1,1,3.2,1.4c1.3,0.5,4.7-2.1,7.1-3.8l0.3-0.2
		c-7.8-4.4-15.2-9.7-21.7-15.5c-5.9-5.2-10.9-10.9-15-16.9l-0.1,0.1c-1.3,2.5-3.1,6-2.5,7.3c3.3,6.7,7.6,12.5,12.9,17.3
		C126.6,162.7,131.9,166.1,137.8,168.9z"/>
	<path class="st0" d="M109.8,147.2c-5.2,2.7-13.2,2.9-20,3.1c-1,0-2,0-2.9,0l10.8,8.6c0.5,0.4,0.6,1.2,0.2,1.7
		c-0.2,0.3-0.5,0.4-0.8,0.4c-10.9,0.9-16.1,3.8-23.9,8.2c-1.1,0.6-2.2,1.2-3.4,1.9c4.9,0.6,7.7,1.8,12.1,3.8
		c1.2,0.5,2.4,1.1,3.9,1.7c0.6,0.2,0.9,1,0.6,1.5c-0.1,0.3-0.3,0.5-0.6,0.6c-9.9,5.5-15.6,10.5-23.1,17.4c4.5-1.5,7.3-1.6,13.2-2
		l2.7-0.1c0.7,0,1.2,0.4,1.2,1.1c0,0.2,0,0.4-0.1,0.6c-4.3,10.3-4,14-3.4,22.2c0.1,1.1,0.1,2.2,0.2,3.5c2.1-3.2,4.2-6.2,6.4-9.3
		c2.9-3.9,5.8-7.8,9-11.8c0.4-0.5,1.2-0.6,1.6-0.2c0.2,0.1,0.3,0.4,0.4,0.6l7,24.1c1.4-3.5,2.6-6.3,4-8.9c1.8-3.4,3.8-6.7,6.9-11.3
		c0.4-0.5,1.1-0.7,1.6-0.3c0.2,0.1,0.3,0.2,0.4,0.4c1.7,2.9,3.1,5.3,4.7,7.5c0.9,1.3,1.8,2.5,2.8,3.9c-1.3-14.2,0.4-19.4,5.2-33.4
		l1-3c0.2-0.6,0.9-1,1.5-0.7c0.2,0.1,0.4,0.2,0.5,0.4l6.3,8.1l0.1-16.6c-3-1.4-5.8-3-8.4-4.7l-1.3,5.3c0,0.2-0.2,0.4-0.4,0.6
		c-0.5,0.4-1.2,0.4-1.7-0.1l-1.6-1.8l-3.5,9.4c-0.1,0.5-0.6,0.8-1.2,0.8c-0.7,0-1.2-0.5-1.2-1.2v-4.3l-4.8,10.3
		c-0.1,0.2-0.2,0.4-0.4,0.5c-0.5,0.3-1.3,0.2-1.6-0.3l-1.2-2l-5,9.9c-0.2,0.4-0.6,0.7-1.1,0.6c-0.7,0-1.2-0.6-1.1-1.2l0.5-10.4
		c-3.1,0.5-6.2,1-9.3,1.5c-0.3,0-0.7,0-1-0.3c-0.5-0.4-0.5-1.2-0.1-1.7l8.5-9.4l-6.4-3c-0.3-0.1-0.5-0.4-0.6-0.7
		c-0.2-0.6,0.1-1.3,0.7-1.5l14.3-5l-2.5-1.1c-0.3-0.1-0.5-0.3-0.7-0.6c-0.2-0.6,0-1.3,0.6-1.5l9.4-4
		C113.2,152.4,111.4,149.8,109.8,147.2z"/>
	<path class="st0" d="M256.5,5.9c-20.2,1.9-38.7,6.6-55.5,13.7c4.3,9.1,12,18.7,21.2,26.8c9,8,19.4,14.5,29.2,17.7
		c5-17.6,7.3-36.6,7.3-56.6c0-0.5,0-0.8,0-1.1c0-0.8,0.3-0.8,0.2-1c-0.1-0.1-0.2,0.1-0.8,0.2h0C257.6,5.8,257.1,5.8,256.5,5.9z"/>
	<path d="M212,57.9c3,2.7,4.7,6.3,4.9,10.1c0.2,3.7-1,7.6-3.6,10.6c-2.7,3-6.3,4.7-10.1,4.9c-3.7,0.2-7.6-1-10.6-3.6
		c-3-2.7-4.7-6.3-4.9-10.1c-0.2-3.7,1-7.6,3.6-10.6c2.7-3,6.3-4.7,10.1-4.9C205.2,54,209,55.2,212,57.9z"/>
	<path d="M180.6,93.5c3,2.7,4.7,6.3,4.9,10c0.2,3.7-1,7.6-3.6,10.6c-2.7,3-6.3,4.7-10,4.9c-3.7,0.2-7.6-1-10.6-3.6
		c-3-2.7-4.7-6.3-4.9-10.1c-0.2-3.7,1-7.6,3.6-10.6c2.7-3,6.3-4.7,10.1-4.9C173.8,89.7,177.6,90.8,180.6,93.5z"/>
	<path class="st0" d="M214.6,68c-0.2-3.1-1.6-6.2-4.1-8.4c-2.5-2.3-5.8-3.3-8.9-3c-3.1,0.2-6.2,1.6-8.4,4.1c-2.3,2.5-3.3,5.8-3,8.9
		c0.2,3.1,1.6,6.2,4.1,8.4c2.5,2.3,5.8,3.3,8.9,3.1c3.1-0.2,6.2-1.6,8.4-4.1C213.8,74.4,214.8,71.1,214.6,68z"/>
	<path class="st0" d="M179.1,95.3C179,95.3,179,95.3,179.1,95.3c-2.6-2.3-5.8-3.3-8.9-3.1c-3.1,0.2-6.2,1.6-8.4,4.1
		c-2.3,2.5-3.3,5.8-3,8.9c0.2,3.1,1.6,6.2,4.1,8.4c2.5,2.3,5.8,3.3,8.9,3c3.1-0.2,6.1-1.6,8.4-4.1c0,0,0-0.1,0.1-0.1
		c2.2-2.5,3.2-5.7,3-8.8C183,100.6,181.6,97.6,179.1,95.3z"/>
	<path class="st1" d="M199.1,25.6c-0.4-0.1-0.8,0.2-0.9,0.6c0,0.4,0.2,0.8,0.6,0.9c0.4,0,0.8-0.2,0.9-0.6
		C199.8,26.1,199.5,25.7,199.1,25.6z"/>
	<path class="st1" d="M207.1,36.9c-0.4-0.1-0.8,0.2-0.9,0.6c-0.1,0.4,0.2,0.8,0.6,0.9c0.4,0,0.8-0.2,0.9-0.6
		C207.8,37.3,207.5,36.9,207.1,36.9z"/>
	<path class="st1" d="M219.6,49c-0.4,0-0.8,0.2-0.9,0.6c-0.1,0.4,0.2,0.8,0.6,0.9c0.4,0.1,0.8-0.2,0.9-0.6
		C220.2,49.5,219.9,49.1,219.6,49z"/>
	<path class="st1" d="M233.6,59.5c-0.4,0-0.8,0.2-0.9,0.6c-0.1,0.4,0.2,0.8,0.6,0.9c0.4,0.1,0.8-0.2,0.9-0.6
		C234.3,60,234,59.6,233.6,59.5z"/>
	<path class="st1" d="M248,66.7c-0.4-0.1-0.8,0.2-0.9,0.6c-0.1,0.4,0.2,0.8,0.6,0.9c0.4,0.1,0.8-0.2,0.9-0.6
		C248.7,67.2,248.4,66.8,248,66.7z"/>
	<path class="st1" d="M124.1,98.3c-0.4-0.1-0.8,0.2-0.9,0.6c-0.1,0.4,0.2,0.8,0.6,0.9c0.4,0,0.8-0.2,0.9-0.6
		C124.8,98.7,124.5,98.3,124.1,98.3z"/>
	<path class="st1" d="M134.8,110.5c-0.4-0.1-0.8,0.2-0.9,0.6c-0.1,0.4,0.2,0.8,0.6,0.9c0.4,0,0.8-0.2,0.9-0.6
		C135.5,110.9,135.2,110.5,134.8,110.5z"/>
	<path class="st1" d="M149.1,124.7c-0.4-0.1-0.8,0.2-0.9,0.6c-0.1,0.4,0.2,0.8,0.6,0.9c0.4,0.1,0.8-0.2,0.9-0.6
		C149.7,125.1,149.5,124.8,149.1,124.7z"/>
	<path class="st1" d="M164.8,137.1c-0.4,0-0.8,0.2-0.9,0.6c-0.1,0.4,0.2,0.8,0.6,0.9c0.4,0.1,0.8-0.2,0.9-0.6
		C165.4,137.6,165.1,137.2,164.8,137.1z"/>
	<path class="st1" d="M179.7,147.6c-0.4,0-0.8,0.2-0.9,0.6c-0.1,0.4,0.2,0.8,0.6,0.9c0.4,0.1,0.8-0.2,0.9-0.6
		C180.4,148.1,180.1,147.7,179.7,147.6z"/>
	<path class="st1" d="M163.2,217.3c-0.6-0.1-1.2,0.3-1.3,0.9c-0.1,0.6,0.3,1.2,0.9,1.3c0.6,0.1,1.2-0.3,1.3-0.9
		C164.2,218,163.7,217.4,163.2,217.3z"/>
	<path class="st1" d="M59.4,125.2c-0.6-0.1-1.2,0.3-1.3,0.9c-0.1,0.6,0.3,1.2,0.9,1.3c0.6,0.1,1.2-0.3,1.3-0.9
		C60.5,125.9,60,125.3,59.4,125.2z"/>
</g>
</svg>
