<?xml version="1.0" encoding="utf-8"?>
<!-- Generator: Adobe Illustrator 25.0.0, SVG Export Plug-In . SVG Version: 6.00 Build 0)  -->
<svg version="1.1" id="Layer_1" xmlns="http://www.w3.org/2000/svg" xmlns:xlink="http://www.w3.org/1999/xlink" x="0px" y="0px"
	 viewBox="0 0 310 233" style="enable-background:new 0 0 310 233;" xml:space="preserve">
<style type="text/css">
	.st0{fill:#FFFFFF;}
</style>
<g>
	<path class="st0" d="M166.2,31.1c1-1.7,1.9-3.7,1.9-5.7c0-1.8-1-3.4-2.6-4.2c-0.7-0.3-1.6-0.5-2.4-0.4c-1.1,0-2.1,0.5-3.2,0.7
		c-0.6,0.1-1.2,0.2-1.8,0.1c-1-0.1-1.9-0.5-2.9-0.9c-0.8-0.3-1.6-0.6-2.4-0.5c-1.6,0.3-2.8,2-3.3,3.5c-1,3.4,1.1,7,3.7,9.1
		c2.6,2.1,6.4,2.8,9.4,1.4C164.1,33.5,165.4,32.5,166.2,31.1z"/>
	<path class="st0" d="M136.5,50.9c-0.8-0.2-1.7-0.2-2.5,0c-1,0.3-2,0.8-2.9,1.3c0,0-0.1,0-0.1,0c0,0-0.1,0-0.1,0
		c-0.5,0.2-1,0.4-1.6,0.4c-1.1,0.1-2.1-0.2-3.1-0.4c-0.9-0.2-1.9-0.3-2.7,0.2c-1.4,0.8-2.1,2.5-2.2,4.1c-0.2,3.6,2.7,6.8,5.7,8.2
		c3,1.4,6.8,1.2,9.5-0.9c1.3-1,2.2-2.4,2.7-3.9c0.6-1.7,1-3.6,0.6-5.4C139.4,52.8,138.2,51.4,136.5,50.9z"/>
	<path class="st0" d="M168.7,113c0.8,0.2,1.7-0.2,2.4-0.6c0.7-0.4,1.4-0.8,2-1.3c2.4-1.8,4.1-4.3,5.6-6.9c-0.6-0.1-1.2,0.2-1.8,0.4
		c-0.6,0.2-1.3,0.4-1.9,0.5c-1.3,0.2-2.6,0.2-4,0c-1.1-0.2-2.3-0.6-3.3-1.2c-0.2-0.1-0.3-0.2-0.5-0.4c-0.1,0.8-0.2,1.6-0.3,2.4
		c-0.1,1.1-0.3,2.2-0.3,3.4C166.7,110.7,167.1,112.6,168.7,113z"/>
	<path class="st0" d="M99.9,73c-0.9-0.2-1.7-0.1-2.6,0.1c-1,0.3-1.9,0.9-2.9,1.4c-0.5,0.2-1,0.4-1.5,0.5c-1.1,0.2-2.2,0-3.3-0.2
		c-0.9-0.2-1.9-0.2-2.8,0.3c-1.3,0.8-2,2.7-2,4.2c0,3.5,3,6.6,6,7.9c3.1,1.3,6.9,1,9.5-1.3c1.3-1.1,2.1-2.5,2.5-4.1
		c0.5-1.7,0.8-3.6,0.3-5.4C102.9,74.7,101.7,73.3,99.9,73z"/>
	<path class="st0" d="M88,49.9c2.6,2.1,6.4,2.8,9.5,1.4c1.5-0.7,2.7-1.8,3.6-3.1c1-1.7,1.9-3.7,1.8-5.7c0-1.8-1-3.4-2.6-4.1
		c-0.8-0.3-1.6-0.5-2.4-0.4c-1.1,0.1-2.1,0.5-3.2,0.7c-0.6,0.1-1.2,0.2-1.8,0.2c-1-0.1-1.8-0.5-2.7-0.8c-0.8-0.3-1.7-0.7-2.5-0.5
		c-1.6,0.3-2.8,2-3.2,3.5C83.3,44.3,85.4,47.9,88,49.9z"/>
	<path class="st0" d="M178.4,128.1c4.8-2.9,8.7-6.9,11.9-11.5c-1.1-0.8-2.1-1.9-2.9-3.1c-0.1,0.1-0.1,0.2-0.2,0.3
		c-2.3,3.1-5,5.8-8.1,8c-1.5,1.1-3.2,2.1-4.9,2.9c-1.7,0.8-3.5,1.6-5.3,2.1c-1.5,0.4-3.5,0.5-4.5-0.9c-0.6-0.8-0.5-1.9-0.3-2.8
		c0.2-0.9,0.7-1.7,1.2-2.4c1.2-1.5,2.8-2.7,4.5-3.5c2-1,4-1.7,5.9-2.7c3-1.7,5.3-4.5,6.5-7.8c-0.3-0.2-0.6-0.4-0.8-0.6
		c-0.5-0.4-0.9-0.8-1.4-1.2c-1,1.6-2,3.1-3.2,4.6c-1.2,1.4-2.5,2.7-4,3.6c-1.6,1-3.6,2-5.4,1c-1.8-1.1-2.2-3.2-2.2-5.2
		c0.1-2.2,0.4-4.3,0.7-6.5c-0.2-0.2-0.3-0.3-0.5-0.5c-1.1-1.3-2.1-2.8-2.9-4.4c-0.4,0.4-0.9,0.7-1.4,1c0.4,4.6,0.7,9.4-0.4,13.9
		c-0.9,3.5-2.6,6.9-5.5,9.3c-1.4,1.2-3.2,2.1-5.1,2.1c-1.8,0-3.6-0.9-4.5-2.5c-0.8-1.5-0.9-3.3-0.4-4.9c0.6-1.9,1.8-3.5,3-5
		c1.2-1.4,2.5-2.8,3.3-4.5c0.8-1.6,1-3.4,0.9-5.2c-0.7,0-1.3-0.1-2-0.3c-0.4-0.1-0.7-0.3-1.1-0.4c0,0.1-0.1,0.2-0.1,0.3
		c-0.1,0.5-0.2,0.9-0.4,1.4c-0.2,0.9-0.5,1.7-0.8,2.6c-0.5,1.5-1,3-1.6,4.5c-0.3,0.6-0.6,1.2-1.2,1.6c-0.4,0.3-0.8,0.5-1.3,0.4
		c-0.4-0.1-0.6-0.4-0.8-0.7c-0.8-1.3-1.1-2.9-1.4-4.3c-0.3-1.4-0.5-2.8-0.7-4.2c-1.2,0.1-2.3,0-3.4-0.4c-0.1-0.1-0.3-0.1-0.4-0.2
		c-0.2,2.9,0.2,5.8,1.3,8.5c1,2.5,3.1,5.1,2.6,8c-0.5,2.5-3.2,3.7-5.5,3.4c-2.8-0.4-4.9-2.6-6.5-4.7c-1.6-2.1-2.8-4.5-3.6-7
		c-0.9,0.3-1.9,0.6-2.9,0.6c-1,0.1-2.1-0.2-3.1-0.2c-0.2,0-0.4,0.1-0.6,0.1c0.2,0.6,0.4,1.2,0.6,1.8c1.4,4.1,3.5,8.1,6.5,11.2
		c2.3,2.3,5.2,3.9,7.4,6.3c5.3,5.9,7,14.1,7.3,21.8c0.2,4.1,0.1,8.2-0.1,12.2c-0.2,5-0.4,10-0.6,15c-0.2,4.8-0.3,9.7-0.6,14.5
		c-0.3,4.7-0.8,9.5-1.8,14.1c-0.9,3.9-2.1,8-4.6,11.3c-0.6,0.7-1.2,1.4-1.9,2.1c-0.7,0.6-1.6,1.1-2.3,1.7c-0.6,0.5-0.9,1.2-1.3,1.9
		c0.7-0.3,1.5-0.6,2.2-0.9c4.5-1.6,9.4-1.9,14.1-1.2c1.5,0.2,3,0.6,4.4,1.1c1.1,0.4,2.2,0.9,3.3,1c1.2,0.1,2.3-0.2,3.2-0.8
		c0.9-0.6,1.9-1,3-0.9c2.8,0.3,4.3,3.1,6.9,3.7c1.1,0.3,2.3-0.1,2.5-1.3c0.2-1.2-0.6-2.6-1.2-3.6c-3.1-5.2-5.1-10.9-6.6-16.7
		c-1.5-6-2.4-12.2-3.3-18.3c-1-6.7-1.9-13.4-2.2-20.2c-0.1-3.4-0.1-6.8,0.1-10.2c0.2-3,0.5-6,1.3-8.9c0.8-2.7,2-5.3,3.8-7.5
		c1.5-1.8,3.5-3.4,5.5-4.7C169.3,132.5,174.1,130.7,178.4,128.1z"/>
	<path class="st0" d="M146.8,116.9c-0.4,1.4-0.3,3,0.7,4.1c1,1.2,2.6,1.5,4.1,1.2c1.7-0.4,3.1-1.5,4.3-2.7c5-5.4,4.9-13.2,4.3-20.1
		c-0.8,0.5-1.6,0.9-2.4,1.3c-1.1,0.5-2.3,0.8-3.5,0.9c0,2-0.2,4-1.1,5.8c-0.9,1.9-2.4,3.4-3.7,5
		C148.3,113.8,147.2,115.2,146.8,116.9z"/>
	<path class="st0" d="M144.7,110.2C144.7,110.2,144.7,110.2,144.7,110.2c0.1,0,0.1-0.1,0.1-0.1c0.2-0.2,0.3-0.3,0.4-0.6
		c0.3-0.5,0.5-1.1,0.7-1.6c0.5-1.3,1-2.7,1.4-4.1c0.2-0.7,0.4-1.3,0.6-2c0.1-0.4,0.2-0.7,0.3-1.1c0-0.2,0.1-0.3,0.1-0.5
		c-0.3-0.1-0.6-0.2-0.8-0.2c-1-0.1-1.9,0.6-2.7,1.1c-0.6,0.4-1.3,0.7-1.9,0.9c0.2,1.5,0.4,2.9,0.7,4.4
		C143.8,107.8,144,109.1,144.7,110.2z"/>
	<path class="st0" d="M242.4,67.6C242.4,67.6,242.4,67.6,242.4,67.6c0-0.1,0-0.1,0-0.1c0,0,0-0.1,0-0.1c0,0,0,0,0,0c0,0,0,0,0,0
		c0.2-0.4,0.3-0.8,0.5-1.2c1.1-3.3,1.3-7,0.6-10.5c-0.7-3.4-2.2-6.8-4.7-9.3c-0.6-0.7-1.5-1.3-2-2c-0.6-0.9-0.5-2-0.7-3
		c-0.3-2-0.8-3.9-1.6-5.8c-1.6-3.7-4.3-6.9-7.6-9.1c-3.4-2.3-7.4-3.5-11.5-3.6c-0.3,0-0.6-0.2-0.7-0.5c-0.5-1.5-1.4-2.8-2.5-3.9
		c-2.1-2.1-4.8-3.4-7.7-3.9c-3.4-0.6-6.8,0-10.1,1c0.1,0.1,0.2,0.1,0.3,0.2c0.9,0.6,1.9,1.2,2.2,2.4c0.2,0.9-1.1,1.3-1.4,0.4
		c-0.2-1-1.5-1.5-2.2-1.9c-3.6-2-8.1-3.1-11.8-0.9c-0.8,0.5-1.5-0.8-0.7-1.2c0.4-0.2,0.8-0.4,1.2-0.6c-0.3-0.2-0.5-0.5-0.8-0.7
		c-4.2-3.2-9.7-4.7-14.9-4c-1.5,0.2-2.9,0.7-4.4,0.7c-1.6,0-2.9-0.8-4.3-1.4c-2.7-1.1-5.6-1.8-8.5-2.1c-2.9-0.3-5.9-0.1-8.7,0.5
		c-1.5,0.3-2.9,0.8-4.3,1.2c-1.6,0.5-3.1,0.6-4.7,0.4c-1.6-0.2-3.1-0.5-4.7-0.6c-1.5-0.1-3-0.2-4.5-0.1c-3,0.1-6,0.6-8.8,1.6
		c-4.5,1.6-8.6,4.9-10.6,9.3c1.5,0,3,0.2,4.4,0.5c0.4,0.1,0.6,0.5,0.5,0.9c-0.1,0.4-0.5,0.6-0.9,0.5c-2.5-0.5-5.1-0.6-7.7-0.3
		c-4,0.4-7.9,1.8-11.3,4c-1.7,1.1-3.3,2.4-4.7,3.9c-1.3,1.4-2.5,3.2-2.6,5.1c0,0.3-0.2,0.6-0.5,0.7c-1.8,0.5-3.5,1.3-5.1,2.3
		c-2.7,1.8-4.9,4.5-6.2,7.5c-1.3,3.3-1.5,6.9-0.7,10.4c1-0.8,2.1-1.4,3.5-1.5c0.9,0,0.9,1.4,0,1.4c-1.3,0.1-2.4,0.8-3.2,1.8
		c0,0.1-0.1,0.1-0.1,0.2c-0.1,0.2-0.2,0.3-0.4,0.5C65.9,58.9,65,62,64.9,65c-0.1,2.7,0.4,5.4,1.5,7.9c1.3-1,2.7-1.7,4.2-2.2
		c0.9-0.3,1.2,1.1,0.4,1.4c-3.6,1.2-6.6,4-7.8,7.5c-0.6,1.6-0.8,3.3-0.7,5c0.1,0.8,0.2,1.6,0.4,2.4c0.2,0.9,0.7,1.7,0.9,2.5
		c0.2,1,0,1.9-0.2,2.9c-0.1,0.7-0.1,1.5-0.1,2.2c0,1.6,0.3,3.1,0.8,4.6c0.9,2.9,2.7,5.6,5.2,7.5c2.4,1.8,5.3,2.9,8.3,3.2
		c0.2-2.6,0.8-5.3,1.4-7.8c0.2-0.9,1.6-0.5,1.4,0.4c-0.5,2-1,4-1.3,6c-0.4,3.2-0.2,6.5,1.5,9.3c1.3,2.2,3.5,4.1,6.2,4.4
		c0.3,0,0.6,0.2,0.7,0.5c0.4,1.7,0.9,3.5,1.5,5.1c1.1,2.7,2.8,5.3,5.4,6.8c2.3,1.3,5.3,1.9,7.7,0.7c0.3-0.1,0.7-0.1,0.9,0.1
		c0.9,1.1,1.9,2,3.2,2.7c4.3,2.4,10.2,2,13.8-1.5c0.2-0.2,0.5-0.3,0.7-0.2c1.3,0.5,2.6,1,4,1.5c2.2,0.7,4.5,1.1,6.7,0.7
		c1.8-0.3,3.5-1,4.8-2.3c-1.4-2.9-3.3-5.5-5.8-7.5c-1.2-1-2.5-1.8-3.7-2.9c-1.6-1.3-2.9-2.9-4.1-4.6c-2.1-3-3.6-6.4-4.7-10
		c-0.1,0.1-0.2,0.2-0.3,0.3c-0.7,0.7-1.4,1.3-2.2,1.7c-1,0.4-2.1,0.6-3.1,0.4c-1.9-0.4-3.5-2-3.9-3.8c-0.2-0.9,1.2-1.3,1.4-0.4
		c0.4,1.8,2.2,3.1,4.1,2.9c0.8-0.1,1.5-0.5,2.1-1c0.6-0.6,1.2-1.3,1.9-1.8c0.8-0.6,1.8-0.7,2.8-0.6c0.9,0.1,1.8,0.2,2.8,0.1
		c3.2-0.3,6.1-2.6,7.3-5.5c0.1-0.4,0.5-0.6,0.9-0.5c0.3,0.1,0.6,0.5,0.5,0.9c-0.8,2-2.1,3.7-3.9,4.8c-0.3,0.2-0.6,0.4-1,0.6
		c0.8,2.7,2.2,5.2,3.9,7.4c1.4,1.8,3.3,3.6,5.7,3.5c0.9,0,1.9-0.4,2.5-1c0.8-0.8,0.9-1.9,0.7-3c-0.3-1.3-1-2.4-1.5-3.6
		c-0.6-1.2-1.2-2.5-1.5-3.9c-0.7-2.6-0.9-5.3-0.6-7.9c-1.1-0.9-2-2.2-2.3-3.7c-0.2-0.9,1.1-1.3,1.4-0.4c0.5,2.1,2.3,3.8,4.5,4.1
		c0.7,0.1,1.4,0.1,2.1-0.1c0,0,0,0,0,0c0.3-0.1,0.6-0.2,0.9-0.3c0.9-0.4,1.8-1.1,2.7-1.5c1-0.5,2.1-0.6,3.2-0.2c1.1,0.4,2,1,3.1,1.2
		c2,0.4,4.1-0.1,5.9-1c1.7-0.9,3.3-2,4.8-3.2c0,0,0,0,0,0c0.1-0.1,0.2-0.1,0.3-0.1c0.1,0,0.2,0,0.3,0c0.1,0,0.3,0.1,0.4,0.2
		c0.1,0.1,0.1,0.2,0.2,0.3c0,0,0,0,0,0c0.3,0.9,0.9,1.8,1.4,2.6c0.6,1,1.3,1.9,2.1,2.7c0.6,0.6,1.2,1.2,2,1.5
		c1.1,0.5,2.3,0.8,3.4,0.8c1.2,0.1,2.4-0.1,3.6-0.5c1.3-0.4,2.5-0.8,3.8-0.2c1,0.4,1.7,1.3,2.6,2c0.9,0.6,1.8,1.1,2.8,1.3
		c2,0.5,4.2,0.4,6-0.5c0.3-0.2,0.8-0.1,1,0.3c0.2,0.3,0.1,0.8-0.3,1c-2.4,1.1-5.1,1.3-7.6,0.5c-0.3-0.1-0.7-0.2-1-0.4
		c-1.4,3.6-3.9,6.6-7.3,8.5c-3.3,1.8-7.5,2.6-9.8,5.7c-0.5,0.7-0.9,1.4-1,2.2c-0.1,0.4-0.2,0.9,0,1.2c0.1,0.3,0.3,0.4,0.5,0.5
		c0.5,0.3,1.2,0.3,1.8,0.2c0.8-0.1,1.6-0.4,2.4-0.7c6.7-2.4,12.5-6.9,16.5-12.7c-0.4-0.7-0.7-1.4-1-2.1c-0.1-0.4,0.2-0.8,0.5-0.9
		c0.4-0.1,0.7,0.1,0.9,0.5c0.3,0.7,0.7,1.4,1.1,2.1c0,0,0.1,0.1,0.1,0.2c0.7,1.1,1.5,2.1,2.4,3c1.4,1.2,3.2,2.1,5.1,2.3
		c1.1,0.1,2.1-0.2,3.1-0.3c1-0.1,2,0.2,2.8,0.7c0.7,0.5,1.3,1.2,2.1,1.5c0.8,0.4,1.8,0.4,2.7,0.1c2-0.5,3.5-1.9,4.9-3.3
		c0.7-0.6,1.7,0.4,1,1c-1.8,1.7-3.7,3.4-6.3,3.8c-1.1,0.1-2.1,0-3.1-0.5c-0.9-0.4-1.5-1.2-2.3-1.7c-0.9-0.6-1.9-0.4-2.9-0.2
		c-1.1,0.2-2.2,0.2-3.3,0c-1.1-0.2-2-0.6-2.9-1.1c-0.7,1-1.4,2-2.2,2.9c-1.8,2.3-3.9,4.4-6.2,6.3c-2.1,1.6-4.3,3-6.6,4.2
		c-4.4,2.3-9.2,4.2-13.1,7.3c-0.1,0.1-0.2,0.2-0.3,0.2c0.9,0.4,1.9,0.8,2.8,1c4.3,1,9.1,0,12.4-2.9c0.2-0.2,0.6-0.3,0.9-0.1
		c1.3,0.8,2.7,1.4,4.2,1.8c5.2,1.5,10.9,0.6,15.3-2.5c0.2-0.1,0.5-0.1,0.7,0c1.7,1.2,3.9,1.7,5.9,1.2c1.8-0.4,3.3-1.6,5-2.3
		c0.9-0.4,1.8-0.7,2.7-0.8c0.9-0.1,1.9,0,2.8,0c1.7,0.1,3.5,0.1,4.6-1.4c0.9-1.3,1.1-3,1.1-4.5c0-0.5,0.4-0.7,0.9-0.7
		c2.4,0.3,4.4-2,5.9-3.5c1.9-2,3.7-4,5.4-6.2c2.9-3.8,5.3-8.2,6-13.1c0.2-1.2,0.2-2.3,0.1-3.5c-0.1-1.2-0.4-2.4,0.1-3.6
		c0.3-0.6,0.7-1,1.1-1.5c0.3-0.4,0.7-0.8,1-1.2c0.7-0.9,1.3-1.8,1.9-2.8c2.3-3.8,3.7-8.2,3.5-12.6c-0.2-4.2-1.9-8.3-4.9-11.1
		C242.5,67.9,242.4,67.7,242.4,67.6z M83.4,39.4c0.9-1.8,2.6-3.5,4.7-3.4c1.1,0,2,0.5,3,0.9c0.5,0.2,1,0.4,1.5,0.5
		c0.6,0.1,1.1,0.1,1.7-0.1c0.6-0.1,1.2-0.3,1.9-0.5c2-0.5,4.2-0.3,5.9,1c1.8,1.4,2.5,3.7,2.2,5.9c-0.2,1.2-0.5,2.3-1,3.3
		c-0.4,0.9-0.9,1.9-1.5,2.7c-1.2,1.5-2.7,2.6-4.6,3.3c-3.8,1.3-8.1,0-10.9-2.7C83.4,47.5,81.6,43.2,83.4,39.4z M104.8,80.3
		c-0.2,1-0.4,2-0.7,2.9c-0.7,1.8-1.9,3.3-3.5,4.4c-3.3,2.3-7.8,2.3-11.3,0.4c-3.5-1.9-6.4-5.7-5.7-9.8c0.3-1.9,1.5-4,3.4-4.6
		c1.1-0.4,2.3-0.2,3.5,0c0.5,0.1,1.1,0.2,1.6,0.2c0.5,0,1.1-0.2,1.6-0.4c0.6-0.3,1.1-0.6,1.6-0.9c1.9-1,4.2-1.3,6.2-0.4
		c2,1,3.1,3,3.3,5.1C105,78.2,105,79.3,104.8,80.3z M140.1,61.4c-0.8,1.7-2.1,3.2-3.7,4.1c-3.4,2.1-7.9,1.9-11.2-0.2
		c-3.4-2.1-6.2-6.1-5.2-10.2c0.5-1.9,1.8-3.9,3.8-4.4c1.2-0.2,2.3,0,3.4,0.3c0.5,0.1,1.1,0.2,1.6,0.2c0.5,0,1-0.2,1.5-0.4
		c0.5-0.2,1-0.5,1.6-0.8c2-0.9,4.2-1.2,6.2-0.1c2,1,3,3.1,3.2,5.3C141.4,57.4,140.9,59.6,140.1,61.4z M151.4,33.1
		c-2.8-2.7-4.6-7.1-2.8-10.8c0.9-1.8,2.6-3.6,4.8-3.5c1.1,0.1,2,0.5,3,0.9c0.5,0.2,0.9,0.4,1.4,0.5c0.6,0.1,1.1,0.1,1.7,0
		c0.6-0.1,1.2-0.3,1.9-0.5c2-0.5,4.2-0.3,5.9,1c1.8,1.4,2.4,3.7,2.2,5.8c-0.2,1.2-0.5,2.3-1,3.4c-0.4,1-0.9,1.9-1.6,2.7
		c-1.2,1.5-2.8,2.6-4.5,3.2C158.4,37.1,154.2,35.8,151.4,33.1z M181.6,76.8c-0.3,1-0.6,2-1.1,2.9c-0.9,1.7-2.2,3-3.9,3.9
		c-3.6,1.9-8,1.4-11.2-0.8c-3.2-2.2-5.8-6.3-4.6-10.4c0.6-1.9,2-3.8,4-4.1c1.2-0.2,2.3,0.1,3.4,0.4c0.5,0.1,1,0.3,1.5,0.3
		c0.6,0,1.1-0.1,1.6-0.3c0.6-0.2,1.1-0.5,1.7-0.7c2-0.8,4.3-0.9,6.1,0.2c1.9,1.2,2.9,3.3,2.9,5.5C182,74.6,181.9,75.7,181.6,76.8z
		 M192.5,52.1c-3-2.9-4.9-7.6-2.9-11.6c0.9-2,2.9-3.8,5.2-3.6c1.1,0.1,2.1,0.6,3.1,1c0.5,0.2,1,0.4,1.5,0.5c0.6,0.1,1.2,0.1,1.8-0.1
		c0.7-0.1,1.3-0.4,2-0.5c2.2-0.6,4.6-0.3,6.4,1.1c1.9,1.5,2.6,4,2.3,6.4c-0.2,1.2-0.6,2.4-1.1,3.6c-0.5,1-1,2-1.7,2.9
		c-1.2,1.6-3,2.7-4.8,3.3C200.1,56.5,195.6,55.1,192.5,52.1z M222.7,88.4c-0.4,1.2-1,2.3-1.8,3.3c-0.7,0.9-1.4,1.8-2.3,2.6
		c-1.6,1.4-3.6,2.2-5.7,2.4c-4.4,0.4-8.5-2-10.8-5.6c-2.2-3.5-3-8.4-0.2-11.9c1.4-1.8,3.9-3,6.1-2.1c1,0.4,1.8,1,2.6,1.6
		c0.4,0.3,0.8,0.5,1.3,0.7c0.6,0.2,1.2,0.3,1.8,0.3c0.7,0,1.4-0.1,2.1-0.1c2.1-0.1,4.4,0.6,5.8,2.3
		C223.2,83.6,223.4,86.1,222.7,88.4z"/>
	<path class="st0" d="M208.5,50.1c1.1-1.8,2.1-4,2-6.2c0-2-1.1-3.7-2.9-4.6c-0.8-0.4-1.7-0.5-2.6-0.5c-1.2,0.1-2.3,0.5-3.5,0.8
		c-0.6,0.1-1.3,0.2-1.9,0.1c-1.1-0.1-2-0.5-3-1c-0.8-0.3-1.7-0.7-2.7-0.6c-1.8,0.3-3.1,2.1-3.6,3.7c-1.1,3.7,1.1,7.5,3.9,9.8
		c2.8,2.3,6.8,3.1,10.2,1.6C206.2,52.8,207.6,51.6,208.5,50.1z"/>
	<path class="st0" d="M219.7,82c-0.7-0.5-1.5-0.8-2.4-1c-1.2-0.2-2.4,0-3.6,0c-0.6,0-1.3-0.1-1.9-0.3c-0.9-0.3-1.7-0.8-2.5-1.4
		c-0.7-0.5-1.5-1-2.4-1.2c-1.9-0.4-3.7,1.3-4.6,2.8c-1.8,3.2-0.6,7.5,1.6,10.3c2.3,2.9,6.1,4.7,9.8,3.9c1.8-0.4,3.4-1.3,4.6-2.6
		c1.5-1.6,2.8-3.5,3.2-5.7C221.9,84.9,221.2,83,219.7,82z"/>
	<path class="st0" d="M177.3,68.8c-0.8-0.2-1.7-0.2-2.5,0c-1.1,0.2-2,0.8-3.1,1.2c-0.5,0.2-1,0.3-1.6,0.4c-1.1,0.1-2.1-0.2-3.1-0.5
		c-0.9-0.2-1.8-0.4-2.7,0c-1.4,0.7-2.3,2.4-2.4,3.9c-0.4,3.6,2.3,6.9,5.3,8.5c3,1.6,6.7,1.6,9.6-0.4c1.3-0.9,2.3-2.2,2.9-3.7
		c0.6-1.7,1.2-3.7,0.9-5.5C180.2,70.8,179.1,69.3,177.3,68.8z"/>
	<path d="M245.1,56.7c-0.5-3.7-1.9-7.3-4.2-10.2c-0.6-0.7-1.2-1.4-1.9-2c-0.3-0.3-0.7-0.6-1-1c-0.3-0.4-0.3-0.9-0.3-1.4
		c-0.2-2.1-0.7-4.1-1.4-6c-1.5-4-4.1-7.5-7.5-10c-3.4-2.6-7.6-4.1-11.8-4.5c-0.4,0-0.7,0-1.1-0.1c-1.1-2.7-3.3-4.9-5.8-6.4
		c-3.1-1.8-6.7-2.3-10.2-2c-2.2,0.2-4.3,0.7-6.4,1.4c-0.2,0.1-0.4,0.2-0.5,0.4c-0.5-0.3-1.1-0.5-1.6-0.7c-2.2-0.9-4.6-1.3-7-1
		c-0.3,0-0.7,0.1-1,0.2c-4-3.7-9.5-5.7-14.9-5.7c-1.4,0-2.8,0.2-4.1,0.4c-0.8,0.2-1.6,0.4-2.4,0.4c-0.8,0-1.5-0.2-2.2-0.5
		c-1.4-0.6-2.8-1.3-4.3-1.7c-1.4-0.5-2.9-0.8-4.4-1c-3-0.5-6.1-0.5-9.1-0.1c-1.5,0.2-3,0.5-4.4,1c-1.5,0.5-3,1.1-4.7,1.1
		c-1.6,0-3.2-0.3-4.8-0.5c-1.6-0.2-3.1-0.3-4.7-0.3c-3.1,0-6.3,0.3-9.3,1.2c-5.2,1.5-10,4.9-12.6,9.8c-0.2,0.4-0.4,0.9-0.6,1.3
		c-2.6,0.1-5.3,0.5-7.8,1.4c-4.1,1.3-7.9,3.6-11,6.8c-1.6,1.7-2.9,3.6-3.3,5.9c-3.3,1-6.3,2.9-8.5,5.5c-2.6,2.9-4.1,6.6-4.4,10.5
		c-0.2,2.2,0.1,4.5,0.7,6.7c-0.9,1.2-1.6,2.6-2.1,4c-1.1,3.1-1.4,6.5-0.8,9.7c0.3,1.7,0.8,3.3,1.5,4.8c-1.1,1.1-2.1,2.3-2.8,3.7
		c-1.7,3.3-1.9,7.3-0.7,10.8c0.3,0.9,0.7,1.7,0.6,2.6c-0.1,0.9-0.3,1.8-0.4,2.7c-0.1,1.6,0.1,3.3,0.5,4.9c0.8,3.3,2.6,6.3,5.1,8.6
		c2.8,2.4,6.3,3.9,10,4.2c0,0.8,0.1,1.7,0.2,2.5c0.5,3,2,6,4.4,7.9c1.2,0.9,2.6,1.6,4.1,1.8c0.7,3.1,1.8,6.3,3.7,8.9
		c1.9,2.5,4.6,4.4,7.8,4.9c1.6,0.2,3.1,0.1,4.6-0.5c3.5,4.1,9.8,5.3,14.7,3.4c1.3-0.5,2.6-1.3,3.6-2.2c4.4,1.7,9.3,3.3,13.9,1.2
		c0.8-0.4,1.5-0.8,2.2-1.4c1.4,3.5,2.2,7.3,2.5,11c0.4,4,0.4,8,0.2,12c-0.1,4.7-0.4,9.5-0.6,14.2c-0.2,4.9-0.4,9.7-0.6,14.6
		c-0.2,4.7-0.5,9.5-1.3,14.2c-0.7,4.2-1.7,8.5-3.7,12.3c-0.9,1.6-2.1,3.2-3.5,4.3c-0.7,0.6-1.5,1-2.2,1.7c-0.5,0.6-1,1.3-1.3,2.1
		c-0.3,0.6-0.6,1.2-0.9,1.7c-0.4,0.6,0.4,1.3,1,1c2.6-1.3,5.3-2.3,8.1-2.8c2.1-0.4,4.2-0.4,6.3-0.3c1.4,0,2.8,0.2,4.2,0.5
		c1.4,0.3,2.8,0.8,4.2,1.3c1.1,0.4,2.2,0.7,3.3,0.7c1.3-0.1,2.4-0.5,3.4-1.2c1-0.6,2-0.7,3.1-0.2c1.2,0.6,2.2,1.5,3.3,2.3
		c1.9,1.3,5.2,2,6.3-0.7c1.1-2.5-1.3-5.4-2.4-7.5c-1.4-2.7-2.6-5.5-3.5-8.3c-1.9-5.8-3-11.8-4-17.7c-1.1-6.6-2.1-13.3-2.7-20
		c-0.6-6.7-0.8-13.6,0-20.3c0.4-2.9,1-5.8,2.3-8.4c0.9-1.7,2.1-3.3,3.5-4.6c4.3,2.3,9.5,2.3,13.9,0.3c1.1-0.5,2.1-1.1,3.1-1.9
		c4.9,2.8,10.9,3.2,16.2,1.3c1.4-0.5,2.7-1.2,3.9-2c1.6,1,3.6,1.5,5.5,1.3c2.1-0.2,3.8-1.3,5.6-2.2c0.9-0.5,1.8-0.9,2.8-1
		c1-0.1,2,0,3,0c1.9,0.1,4,0,5.4-1.6c1.2-1.4,1.5-3.2,1.6-5c2-0.1,3.8-1.3,5.2-2.7c1.8-1.7,3.4-3.6,5-5.5c3.3-3.9,6.1-8.3,7.4-13.3
		c0.6-2.5,0.8-5,0.5-7.6c-0.1-0.5-0.1-1.1,0.1-1.6c0.2-0.5,0.7-1,1.1-1.4c0.8-0.9,1.5-1.9,2.2-2.9c2.6-3.9,4.4-8.5,4.5-13.2
		c0.1-4.8-1.6-9.7-5-13.1C245.2,64,245.6,60.3,245.1,56.7z M159.6,139.9c-1.8,2.2-3.1,4.8-3.8,7.5c-0.8,2.9-1.1,5.9-1.3,8.9
		c-0.2,3.4-0.2,6.8-0.1,10.2c0.3,6.8,1.2,13.5,2.2,20.2c0.9,6.1,1.9,12.3,3.3,18.3c1.4,5.9,3.5,11.5,6.6,16.7c0.6,1,1.4,2.3,1.2,3.6
		c-0.2,1.3-1.4,1.6-2.5,1.3c-2.6-0.6-4.1-3.4-6.9-3.7c-1.1-0.1-2.1,0.3-3,0.9c-1,0.6-2.1,1-3.2,0.8c-1.2-0.1-2.3-0.6-3.3-1
		c-1.4-0.5-2.9-0.9-4.4-1.1c-4.7-0.7-9.6-0.3-14.1,1.2c-0.7,0.3-1.5,0.6-2.2,0.9c0.3-0.7,0.7-1.3,1.3-1.9c0.7-0.7,1.6-1.1,2.3-1.7
		c0.7-0.6,1.3-1.3,1.9-2.1c2.5-3.3,3.7-7.3,4.6-11.3c1-4.6,1.5-9.4,1.8-14.1c0.3-4.8,0.4-9.7,0.6-14.5c0.2-5,0.4-10,0.6-15
		c0.2-4.1,0.3-8.2,0.1-12.2c-0.4-7.7-2-15.9-7.3-21.8c-2.2-2.4-5.2-3.9-7.4-6.3c-3-3.1-5.2-7.2-6.5-11.2c-0.2-0.6-0.4-1.2-0.6-1.8
		c0.2-0.1,0.4-0.1,0.6-0.1c1-0.1,2.1,0.2,3.1,0.2c1-0.1,2-0.3,2.9-0.6c0.8,2.5,2,4.9,3.6,7c1.6,2.1,3.7,4.4,6.5,4.7
		c2.4,0.3,5-1,5.5-3.4c0.6-2.9-1.6-5.4-2.6-8c-1.1-2.7-1.5-5.6-1.3-8.5c0.1,0.1,0.3,0.1,0.4,0.2c1.1,0.4,2.3,0.6,3.4,0.4
		c0.2,1.4,0.4,2.8,0.7,4.2c0.3,1.5,0.5,3,1.4,4.3c0.2,0.3,0.5,0.6,0.8,0.7c0.5,0.1,0.9-0.1,1.3-0.4c0.5-0.4,0.9-1,1.2-1.6
		c0.7-1.4,1.1-3,1.6-4.5c0.3-0.9,0.5-1.7,0.8-2.6c0.1-0.5,0.3-0.9,0.4-1.4c0-0.1,0.1-0.2,0.1-0.3c0.4,0.2,0.7,0.3,1.1,0.4
		c0.6,0.2,1.3,0.3,2,0.3c0,1.8-0.1,3.6-0.9,5.2c-0.8,1.7-2.1,3.1-3.3,4.5c-1.3,1.5-2.5,3.1-3,5c-0.5,1.6-0.4,3.4,0.4,4.9
		c0.9,1.6,2.7,2.5,4.5,2.5c1.9,0,3.7-0.9,5.1-2.1c2.8-2.3,4.6-5.8,5.5-9.3c1.2-4.5,0.9-9.3,0.4-13.9c0.5-0.3,0.9-0.7,1.4-1
		c0.7,1.6,1.7,3,2.9,4.4c0.1,0.2,0.3,0.3,0.5,0.5c-0.3,2.1-0.6,4.3-0.7,6.5c-0.1,1.9,0.4,4.1,2.2,5.2c1.8,1,3.8,0,5.4-1
		c1.5-1,2.9-2.2,4-3.6c1.2-1.4,2.2-3,3.2-4.6c0.5,0.4,1,0.9,1.4,1.2c0.3,0.2,0.5,0.4,0.8,0.6c-1.2,3.3-3.5,6.1-6.5,7.8
		c-1.9,1.1-4,1.8-5.9,2.7c-1.7,0.8-3.3,2-4.5,3.5c-0.6,0.7-1,1.6-1.2,2.4c-0.3,0.9-0.3,2,0.3,2.8c1,1.4,3,1.3,4.5,0.9
		c1.8-0.5,3.6-1.3,5.3-2.1c1.7-0.8,3.3-1.8,4.9-2.9c3.1-2.2,5.9-4.9,8.1-8c0.1-0.1,0.1-0.2,0.2-0.3c0.8,1.2,1.8,2.2,2.9,3.1
		c-3.2,4.6-7.1,8.6-11.9,11.5c-4.3,2.6-9.1,4.4-13.3,7.1C163,136.5,161.1,138,159.6,139.9z M142.9,102.2c0.7-0.2,1.3-0.6,1.9-0.9
		c0.8-0.5,1.7-1.1,2.7-1.1c0.3,0,0.6,0.1,0.8,0.2c0,0.2-0.1,0.3-0.1,0.5c-0.1,0.4-0.2,0.7-0.3,1.1c-0.2,0.7-0.4,1.4-0.6,2
		c-0.4,1.4-0.9,2.7-1.4,4.1c-0.2,0.6-0.4,1.1-0.7,1.6c-0.1,0.2-0.3,0.4-0.4,0.6c0,0-0.1,0-0.1,0.1c0,0,0,0,0,0
		c-0.7-1.1-0.9-2.4-1.1-3.7C143.3,105.1,143.1,103.6,142.9,102.2z M153.1,107.5c0.9-1.8,1.1-3.8,1.1-5.8c1.2-0.1,2.4-0.4,3.5-0.9
		c0.8-0.4,1.6-0.8,2.4-1.3c0.6,6.9,0.7,14.7-4.3,20.1c-1.2,1.2-2.6,2.3-4.3,2.7c-1.4,0.3-3.1,0-4.1-1.2c-0.9-1.1-1-2.8-0.7-4.1
		c0.4-1.7,1.5-3.2,2.6-4.5C150.7,110.9,152.2,109.3,153.1,107.5z M166.7,109.3c0-1.1,0.1-2.2,0.3-3.4c0.1-0.8,0.2-1.6,0.3-2.4
		c0.2,0.1,0.3,0.3,0.5,0.4c1,0.6,2.1,1,3.3,1.2c1.3,0.2,2.6,0.2,4,0c0.7-0.1,1.3-0.3,1.9-0.5c0.6-0.2,1.2-0.4,1.8-0.4
		c-1.5,2.5-3.3,5-5.6,6.9c-0.6,0.5-1.3,0.9-2,1.3c-0.7,0.4-1.6,0.8-2.4,0.6C167.1,112.6,166.7,110.7,166.7,109.3z M247.5,79.1
		c0.2,4.5-1.2,8.9-3.5,12.6c-0.6,1-1.2,1.9-1.9,2.8c-0.3,0.4-0.7,0.8-1,1.2c-0.4,0.5-0.8,0.9-1.1,1.5c-0.6,1.1-0.2,2.4-0.1,3.6
		c0.1,1.2,0,2.4-0.1,3.5c-0.7,4.8-3.1,9.2-6,13.1c-1.7,2.2-3.5,4.2-5.4,6.2c-1.5,1.6-3.5,3.9-5.9,3.5c-0.5-0.1-0.9,0.2-0.9,0.7
		c0,1.5-0.2,3.2-1.1,4.5c-1.1,1.5-2.9,1.5-4.6,1.4c-0.9-0.1-1.9-0.1-2.8,0c-1,0.1-1.8,0.4-2.7,0.8c-1.7,0.8-3.2,1.9-5,2.3
		c-2,0.5-4.2,0-5.9-1.2c-0.2-0.1-0.5-0.1-0.7,0c-4.4,3.1-10.1,4-15.3,2.5c-1.5-0.4-2.9-1-4.2-1.8c-0.3-0.2-0.6-0.1-0.9,0.1
		c-3.4,2.8-8.2,3.9-12.4,2.9c-1-0.2-1.9-0.6-2.8-1c0.1-0.1,0.2-0.2,0.3-0.2c3.9-3.1,8.7-5,13.1-7.3c2.3-1.2,4.6-2.6,6.6-4.2
		c2.3-1.8,4.4-4,6.2-6.3c0.8-1,1.5-1.9,2.2-2.9c0.9,0.5,1.9,0.9,2.9,1.1c1.1,0.2,2.2,0.2,3.3,0c1-0.2,2-0.4,2.9,0.2
		c0.8,0.5,1.5,1.2,2.3,1.7c1,0.5,2,0.6,3.1,0.5c2.5-0.3,4.5-2.1,6.3-3.8c0.7-0.6-0.3-1.6-1-1c-1.4,1.3-2.9,2.8-4.9,3.3
		c-0.9,0.2-1.8,0.2-2.7-0.1c-0.8-0.3-1.4-1-2.1-1.5c-0.8-0.6-1.8-0.8-2.8-0.7c-1.1,0.1-2.1,0.4-3.1,0.3c-1.9-0.1-3.7-1-5.1-2.3
		c-1-0.9-1.8-1.9-2.4-3c0-0.1-0.1-0.1-0.1-0.2c-0.4-0.7-0.8-1.4-1.1-2.1c-0.1-0.4-0.5-0.6-0.9-0.5c-0.3,0.1-0.6,0.5-0.5,0.9
		c0.3,0.7,0.6,1.4,1,2.1c-4,5.8-9.8,10.4-16.5,12.7c-0.8,0.3-1.6,0.6-2.4,0.7c-0.6,0.1-1.3,0.1-1.8-0.2c-0.2-0.1-0.4-0.3-0.5-0.5
		c-0.1-0.4-0.1-0.8,0-1.2c0.2-0.8,0.6-1.5,1-2.2c2.3-3.1,6.5-3.9,9.8-5.7c3.4-1.8,5.9-4.9,7.3-8.5c0.3,0.1,0.6,0.3,1,0.4
		c2.5,0.8,5.3,0.7,7.6-0.5c0.3-0.2,0.4-0.7,0.3-1c-0.2-0.4-0.6-0.4-1-0.3c-1.9,0.9-4.1,1-6,0.5c-1-0.3-2-0.7-2.8-1.3
		c-0.9-0.6-1.6-1.5-2.6-2c-1.3-0.6-2.5-0.2-3.8,0.2c-1.2,0.4-2.3,0.6-3.6,0.5c-1.2-0.1-2.4-0.3-3.4-0.8c-0.8-0.4-1.4-0.9-2-1.5
		c-0.8-0.8-1.5-1.7-2.1-2.7c-0.5-0.8-1.1-1.8-1.4-2.6c0,0,0,0,0,0c0-0.1-0.1-0.2-0.2-0.3c-0.1-0.1-0.2-0.2-0.4-0.2
		c-0.1,0-0.2,0-0.3,0c-0.1,0-0.2,0.1-0.3,0.1c0,0,0,0,0,0c-1.5,1.2-3.1,2.3-4.8,3.2c-1.8,0.9-3.9,1.4-5.9,1
		c-1.1-0.2-2.1-0.8-3.1-1.2c-1.1-0.4-2.1-0.2-3.2,0.2c-0.9,0.4-1.8,1.1-2.7,1.5c-0.3,0.1-0.6,0.2-0.9,0.3c0,0,0,0,0,0
		c-0.7,0.2-1.4,0.2-2.1,0.1c-2.2-0.3-3.9-2-4.5-4.1c-0.2-0.9-1.6-0.5-1.4,0.4c0.4,1.4,1.2,2.7,2.3,3.7c-0.3,2.7-0.1,5.4,0.6,7.9
		c0.4,1.3,0.9,2.6,1.5,3.9c0.6,1.2,1.2,2.3,1.5,3.6c0.2,1.1,0.1,2.2-0.7,3c-0.7,0.7-1.6,1-2.5,1c-2.4,0.1-4.3-1.8-5.7-3.5
		c-1.8-2.2-3.1-4.7-3.9-7.4c0.3-0.2,0.7-0.4,1-0.6c1.8-1.2,3.1-2.9,3.9-4.8c0.1-0.4-0.2-0.8-0.5-0.9c-0.4-0.1-0.7,0.1-0.9,0.5
		c-1.1,3-4.1,5.2-7.3,5.5c-0.9,0.1-1.8,0-2.8-0.1c-1-0.1-1.9,0.1-2.8,0.6c-0.7,0.5-1.3,1.2-1.9,1.8c-0.6,0.5-1.3,0.9-2.1,1
		c-1.9,0.3-3.6-1-4.1-2.9c-0.2-0.9-1.6-0.5-1.4,0.4c0.4,1.9,2,3.5,3.9,3.8c1.1,0.2,2.1,0.1,3.1-0.4c0.9-0.4,1.6-1.1,2.2-1.7
		c0.1-0.1,0.2-0.2,0.3-0.3c1,3.5,2.6,6.9,4.7,10c1.2,1.7,2.5,3.3,4.1,4.6c1.2,1,2.5,1.9,3.7,2.9c2.6,2,4.4,4.6,5.8,7.5
		c-1.3,1.3-3,2-4.8,2.3c-2.2,0.4-4.6-0.1-6.7-0.7c-1.3-0.4-2.7-0.9-4-1.5c-0.2-0.1-0.5,0-0.7,0.2c-3.6,3.5-9.5,3.9-13.8,1.5
		c-1.2-0.7-2.3-1.6-3.2-2.7c-0.2-0.3-0.6-0.2-0.9-0.1c-2.5,1.2-5.4,0.7-7.7-0.7c-2.6-1.5-4.3-4.1-5.4-6.8c-0.7-1.7-1.2-3.4-1.5-5.1
		c-0.1-0.3-0.4-0.5-0.7-0.5c-2.7-0.3-4.8-2.1-6.2-4.4c-1.7-2.8-1.9-6.1-1.5-9.3c0.2-2,0.7-4,1.3-6c0.2-0.9-1.1-1.3-1.4-0.4
		c-0.7,2.5-1.3,5.2-1.4,7.8c-3-0.2-5.9-1.3-8.3-3.2c-2.5-1.9-4.3-4.5-5.2-7.5c-0.5-1.5-0.7-3-0.8-4.6c0-0.7,0-1.5,0.1-2.2
		c0.1-1,0.4-1.9,0.2-2.9c-0.2-0.9-0.6-1.7-0.9-2.5c-0.2-0.8-0.4-1.6-0.4-2.4c-0.1-1.7,0.1-3.4,0.7-5c1.3-3.5,4.3-6.4,7.8-7.5
		c0.9-0.3,0.5-1.6-0.4-1.4c-1.5,0.5-3,1.3-4.2,2.2c-1.1-2.5-1.6-5.2-1.5-7.9c0.1-3,1-6.1,2.7-8.5c0.1-0.2,0.2-0.3,0.4-0.5
		c0.1,0,0.1-0.1,0.1-0.2c0.8-0.9,1.9-1.7,3.2-1.8c0.9,0,0.9-1.5,0-1.4c-1.4,0.1-2.5,0.6-3.5,1.5c-0.8-3.4-0.6-7.1,0.7-10.4
		c1.2-3,3.4-5.7,6.2-7.5c1.6-1,3.3-1.8,5.1-2.3c0.3-0.1,0.5-0.4,0.5-0.7c0.2-2,1.3-3.7,2.6-5.1c1.4-1.5,3-2.8,4.7-3.9
		c3.4-2.2,7.3-3.6,11.3-4c2.6-0.3,5.2-0.2,7.7,0.3c0.4,0.1,0.8-0.1,0.9-0.5c0.1-0.3-0.1-0.8-0.5-0.9c-1.5-0.3-2.9-0.4-4.4-0.5
		c2-4.4,6.1-7.6,10.6-9.3c2.8-1,5.8-1.5,8.8-1.6c1.5,0,3,0,4.5,0.1c1.6,0.1,3.1,0.4,4.7,0.6c1.6,0.2,3.2,0.1,4.7-0.4
		c1.4-0.4,2.9-0.9,4.3-1.2c2.9-0.6,5.8-0.8,8.7-0.5c2.9,0.3,5.8,1,8.5,2.1c1.4,0.6,2.7,1.4,4.3,1.4c1.5,0,2.9-0.5,4.4-0.7
		c5.2-0.7,10.7,0.8,14.9,4c0.3,0.2,0.6,0.4,0.8,0.7c-0.4,0.2-0.8,0.4-1.2,0.6c-0.8,0.5-0.1,1.7,0.7,1.2c3.7-2.2,8.3-1.1,11.8,0.9
		c0.8,0.4,2,1,2.2,1.9c0.2,0.9,1.6,0.5,1.4-0.4c-0.3-1.1-1.2-1.8-2.2-2.4c-0.1-0.1-0.2-0.1-0.3-0.2c3.2-1.1,6.7-1.6,10.1-1
		c2.9,0.5,5.7,1.8,7.7,3.9c1.1,1.1,2,2.4,2.5,3.9c0.1,0.3,0.3,0.5,0.7,0.5c4.1,0.1,8.1,1.3,11.5,3.6c3.4,2.2,6,5.4,7.6,9.1
		c0.8,1.8,1.4,3.8,1.6,5.8c0.1,1,0,2.1,0.7,3c0.6,0.8,1.4,1.3,2,2c2.4,2.6,4,5.9,4.7,9.3c0.7,3.5,0.5,7.1-0.6,10.5
		c-0.1,0.4-0.3,0.8-0.5,1.2c0,0,0,0,0,0c0,0,0,0,0,0c0,0,0,0.1,0,0.1c0,0,0,0,0,0.1c0,0,0,0,0,0c0,0.1,0.1,0.3,0.2,0.4
		C245.7,70.9,247.3,75,247.5,79.1z"/>
	<path d="M138.1,50c-2-1-4.2-0.8-6.2,0.1c-0.5,0.2-1,0.5-1.6,0.8c-0.5,0.2-1,0.4-1.5,0.4c-0.5,0-1.1-0.1-1.6-0.2
		c-1.1-0.2-2.3-0.5-3.4-0.3c-2,0.4-3.3,2.4-3.8,4.4c-1,4.1,1.8,8.1,5.2,10.2c3.4,2.1,7.8,2.3,11.2,0.2c1.6-1,2.9-2.4,3.7-4.1
		c0.8-1.9,1.4-4.1,1.2-6.1C141.1,53.2,140.1,51.1,138.1,50z M139.1,60c-0.5,1.5-1.4,2.9-2.7,3.9c-2.7,2.1-6.5,2.3-9.5,0.9
		c-3.1-1.5-5.9-4.6-5.7-8.2c0.1-1.5,0.8-3.3,2.2-4.1c0.8-0.5,1.8-0.4,2.7-0.2c1,0.2,2.1,0.5,3.1,0.4c0.6-0.1,1.1-0.2,1.6-0.4
		c0,0,0.1,0,0.1,0c0,0,0.1,0,0.1,0c1-0.4,1.9-1,2.9-1.3c0.8-0.2,1.7-0.2,2.5,0c1.8,0.5,2.9,1.9,3.3,3.6
		C140.1,56.3,139.7,58.3,139.1,60z"/>
	<path d="M97.2,52.9c1.8-0.6,3.4-1.7,4.6-3.3c0.6-0.8,1.1-1.7,1.5-2.7c0.5-1.1,0.8-2.2,1-3.3c0.3-2.2-0.4-4.5-2.2-5.9
		c-1.7-1.3-3.9-1.5-5.9-1c-0.6,0.2-1.2,0.4-1.9,0.5c-0.5,0.1-1.1,0.2-1.7,0.1c-0.5-0.1-1-0.3-1.5-0.5c-1-0.4-1.9-0.8-3-0.9
		c-2.1-0.1-3.9,1.6-4.7,3.4c-1.8,3.8,0,8.1,2.8,10.8C89.1,53,93.3,54.3,97.2,52.9z M84.3,40.9c0.4-1.5,1.6-3.2,3.2-3.5
		c0.9-0.2,1.7,0.2,2.5,0.5c0.9,0.4,1.8,0.7,2.7,0.8c0.6,0.1,1.2,0,1.8-0.2c1.1-0.2,2.1-0.7,3.2-0.7c0.8,0,1.7,0.1,2.4,0.4
		c1.6,0.7,2.6,2.4,2.6,4.1c0,2-0.8,4-1.8,5.7c-0.8,1.4-2.1,2.5-3.6,3.1c-3.1,1.4-6.8,0.7-9.5-1.4C85.4,47.9,83.3,44.3,84.3,40.9z"/>
	<path d="M101.6,72.1c-2-1-4.3-0.7-6.2,0.4c-0.5,0.3-1.1,0.6-1.6,0.9c-0.5,0.2-1,0.4-1.6,0.4c-0.6,0-1.1-0.1-1.6-0.2
		c-1.2-0.2-2.4-0.4-3.5,0c-2,0.7-3.1,2.7-3.4,4.6c-0.7,4.1,2.2,7.9,5.7,9.8c3.5,1.9,7.9,2,11.3-0.4c1.6-1.1,2.8-2.6,3.5-4.4
		c0.4-0.9,0.6-1.9,0.7-2.9c0.2-1,0.3-2.1,0.1-3.2C104.7,75,103.6,73,101.6,72.1z M103,81.8c-0.4,1.6-1.3,3-2.5,4.1
		c-2.6,2.3-6.4,2.6-9.5,1.3c-3.1-1.3-6.1-4.3-6-7.9c0-1.5,0.6-3.3,2-4.2c0.8-0.5,1.8-0.5,2.8-0.3c1.1,0.2,2.2,0.4,3.3,0.2
		c0.5-0.1,1-0.3,1.5-0.5c1-0.5,1.9-1.1,2.9-1.4c0.8-0.2,1.7-0.3,2.6-0.1c1.8,0.4,3,1.8,3.5,3.5C103.8,78.2,103.5,80.1,103,81.8z"/>
	<path d="M179.1,68.1c-1.9-1.1-4.2-1-6.1-0.2c-0.6,0.2-1.1,0.5-1.7,0.7c-0.5,0.2-1.1,0.3-1.6,0.3c-0.5,0-1-0.1-1.5-0.3
		c-1.1-0.3-2.2-0.6-3.4-0.4c-2.1,0.3-3.5,2.3-4,4.1c-1.2,4,1.4,8.1,4.6,10.4c3.3,2.3,7.7,2.7,11.2,0.8c1.6-0.9,3-2.3,3.9-3.9
		c0.5-0.9,0.8-1.9,1.1-2.9c0.3-1.1,0.5-2.2,0.5-3.3C182,71.4,181,69.2,179.1,68.1z M179.7,78.1c-0.6,1.5-1.6,2.8-2.9,3.7
		c-2.8,2-6.6,2-9.6,0.4c-3-1.6-5.7-4.9-5.3-8.5c0.2-1.5,1-3.2,2.4-3.9c0.8-0.4,1.8-0.2,2.7,0c1,0.3,2,0.6,3.1,0.5
		c0.6,0,1.1-0.2,1.6-0.4c1-0.4,2-0.9,3.1-1.2c0.8-0.2,1.7-0.2,2.5,0c1.8,0.5,2.9,2,3.2,3.7C180.9,74.4,180.3,76.4,179.7,78.1z"/>
	<path d="M166.8,32.7c0.7-0.8,1.2-1.8,1.6-2.7c0.5-1.1,0.9-2.2,1-3.4c0.3-2.2-0.4-4.4-2.2-5.8c-1.7-1.3-3.9-1.6-5.9-1
		c-0.6,0.2-1.2,0.4-1.9,0.5c-0.5,0.1-1.1,0.2-1.7,0c-0.5-0.1-1-0.3-1.4-0.5c-1-0.4-1.9-0.8-3-0.9c-2.2-0.1-3.9,1.6-4.8,3.5
		c-1.8,3.7,0,8.1,2.8,10.8c2.8,2.8,7.1,4,10.9,2.8C164,35.3,165.6,34.2,166.8,32.7z M153.2,32.8c-2.6-2.1-4.7-5.7-3.7-9.1
		c0.4-1.5,1.6-3.2,3.3-3.5c0.8-0.1,1.7,0.2,2.4,0.5c0.9,0.4,1.8,0.8,2.9,0.9c0.6,0.1,1.2,0,1.8-0.1c1.1-0.2,2.1-0.7,3.2-0.7
		c0.8,0,1.6,0.1,2.4,0.4c1.7,0.8,2.6,2.4,2.6,4.2c0,2-0.8,4-1.9,5.7c-0.8,1.4-2.1,2.5-3.6,3.1C159.5,35.6,155.8,34.9,153.2,32.8z"/>
	<path d="M204.2,55.1c1.9-0.6,3.6-1.8,4.8-3.3c0.7-0.9,1.2-1.9,1.7-2.9c0.5-1.1,0.9-2.3,1.1-3.6c0.3-2.4-0.3-4.9-2.3-6.4
		c-1.8-1.4-4.2-1.7-6.4-1.1c-0.7,0.2-1.3,0.4-2,0.5c-0.6,0.1-1.2,0.2-1.8,0.1c-0.5-0.1-1-0.3-1.5-0.5c-1-0.4-2-0.9-3.1-1
		c-2.3-0.2-4.3,1.6-5.2,3.6c-1.9,4,0,8.7,2.9,11.6C195.6,55.1,200.1,56.5,204.2,55.1z M194.4,51.9c-2.8-2.3-5-6.2-3.9-9.8
		c0.5-1.6,1.8-3.4,3.6-3.7c0.9-0.1,1.8,0.2,2.7,0.6c1,0.4,1.9,0.8,3,1c0.6,0.1,1.3,0,1.9-0.1c1.2-0.3,2.3-0.7,3.5-0.8
		c0.9,0,1.8,0.1,2.6,0.5c1.8,0.8,2.8,2.6,2.9,4.6c0,2.2-0.9,4.4-2,6.2c-0.9,1.5-2.3,2.7-3.9,3.4C201.2,54.9,197.2,54.2,194.4,51.9z"
		/>
	<path d="M215.8,79.5c-0.7,0-1.4,0.1-2.1,0.1c-0.6,0-1.2-0.1-1.8-0.3c-0.4-0.2-0.9-0.5-1.3-0.7c-0.8-0.6-1.6-1.2-2.6-1.6
		c-2.3-0.9-4.7,0.4-6.1,2.1c-2.8,3.4-2.1,8.4,0.2,11.9c2.3,3.6,6.5,6.1,10.8,5.6c2.1-0.2,4-1,5.7-2.4c0.9-0.7,1.6-1.6,2.3-2.6
		c0.7-1,1.4-2.1,1.8-3.3c0.8-2.2,0.5-4.7-1.1-6.6C220.2,80.1,218,79.4,215.8,79.5z M221.6,86.7c-0.3,2.2-1.7,4.1-3.2,5.7
		c-1.2,1.3-2.9,2.2-4.6,2.6c-3.7,0.8-7.5-0.9-9.8-3.9c-2.2-2.8-3.4-7-1.6-10.3c0.9-1.5,2.7-3.2,4.6-2.8c0.9,0.2,1.6,0.7,2.4,1.2
		c0.8,0.5,1.5,1.1,2.5,1.4c0.6,0.2,1.3,0.3,1.9,0.3c1.2,0,2.4-0.2,3.6,0c0.9,0.2,1.7,0.5,2.4,1C221.2,83,221.9,84.9,221.6,86.7z"/>
</g>
</svg>
